<svg width="20" height="20" fill="none" xmlns="http://www.w3.org/2000/svg"><path fill-rule="evenodd" clip-rule="evenodd" d="M19.067 9.987a9.063 9.063 0 0 1-.714 3.524 9.133 9.133 0 0 1-3.284 3.983 9.159 9.159 0 0 1-1.54.835 9.108 9.108 0 0 1-7.059 0 9.167 9.167 0 0 1-1.54-.835 9.14 9.14 0 0 1-3.283-3.983 9.026 9.026 0 0 1-.53-5.346 9.002 9.002 0 0 1 1.365-3.24A9.14 9.14 0 0 1 4.93 2.48a8.978 8.978 0 0 1 3.244-1.363 9.136 9.136 0 0 1 5.356.526 9.097 9.097 0 0 1 3.988 3.28 8.966 8.966 0 0 1 1.365 3.24c.122.596.185 1.21.185 1.823ZM6.696 2.994a7.744 7.744 0 0 0-4.273 5.4c.204.001 3.43.042 7.148-.945a46.557 46.557 0 0 0-2.875-4.455Zm3.517 5.646C6.226 9.832 2.4 9.746 2.263 9.74c-.002.084-.006.164-.006.247 0 1.987.75 3.797 1.983 5.167-.002-.004 2.117-3.758 6.295-5.107.101-.034.204-.064.306-.093a26.1 26.1 0 0 0-.628-1.314Zm4.9-4.455A7.712 7.712 0 0 0 10 2.256c-.63 0-1.24.076-1.825.217.116.155 1.57 2.082 2.895 4.51 2.921-1.094 4.024-2.77 4.043-2.798Zm-3.745 7.05c-.017.006-.034.01-.05.017-4.57 1.59-6.061 4.795-6.077 4.83A7.733 7.733 0 0 0 10 17.72a7.712 7.712 0 0 0 3.023-.613c-.115-.676-.565-3.043-1.655-5.871Zm2.958 5.165a7.734 7.734 0 0 0 3.318-5.187c-.16-.051-2.325-.736-4.825-.336 1.016 2.787 1.429 5.057 1.507 5.523Zm-2.66-8.265a24.408 24.408 0 0 1 .681 1.522c2.66-.335 5.28.228 5.393.25a7.686 7.686 0 0 0-1.76-4.831c-.015.02-1.257 1.812-4.314 3.06Z" fill="#fff"/></svg>