<svg width="20" height="20" fill="none" xmlns="http://www.w3.org/2000/svg"><path fill-rule="evenodd" clip-rule="evenodd" d="M10 .933c-2.462 0-2.77.011-3.738.055-.965.044-1.624.197-2.2.421a4.44 4.44 0 0 0-1.606 1.046A4.45 4.45 0 0 0 1.409 4.06c-.225.577-.378 1.236-.421 2.2-.043.968-.055 1.277-.055 3.74 0 2.462.011 2.77.055 3.737.045.965.197 1.624.421 2.2a4.442 4.442 0 0 0 1.046 1.606 4.44 4.44 0 0 0 1.606 1.047c.577.224 1.236.377 2.2.421.968.044 1.277.055 3.739.055 2.462 0 2.77-.01 3.738-.055.965-.044 1.624-.197 2.201-.421a4.435 4.435 0 0 0 1.605-1.047 4.45 4.45 0 0 0 1.047-1.606c.223-.576.376-1.235.42-2.2.044-.967.056-1.275.056-3.738 0-2.462-.012-2.771-.055-3.738-.045-.966-.198-1.624-.421-2.201a4.45 4.45 0 0 0-1.047-1.606 4.432 4.432 0 0 0-1.605-1.046c-.578-.224-1.238-.377-2.203-.42C12.77.943 12.461.932 9.998.932h.003Zm-.813 1.634h.814c2.42 0 2.708.009 3.664.052.884.04 1.363.188 1.683.313.423.164.725.36 1.042.678.317.317.514.62.678 1.042.124.32.272.8.313 1.683.043.956.052 1.243.052 3.663s-.009 2.707-.052 3.663c-.04.884-.189 1.363-.313 1.683a2.805 2.805 0 0 1-.678 1.041 2.805 2.805 0 0 1-1.042.678c-.32.125-.8.272-1.683.313-.956.043-1.243.053-3.664.053-2.421 0-2.708-.01-3.664-.053-.884-.041-1.364-.189-1.683-.313a2.808 2.808 0 0 1-1.043-.678 2.81 2.81 0 0 1-.679-1.042c-.124-.32-.272-.8-.312-1.683-.043-.956-.052-1.243-.052-3.664 0-2.421.009-2.707.052-3.663.04-.884.188-1.364.312-1.683a2.81 2.81 0 0 1 .679-1.043c.317-.317.62-.514 1.043-.678.32-.125.8-.272 1.683-.313.837-.038 1.16-.05 2.85-.051v.002Zm5.654 1.506a1.088 1.088 0 1 0 0 2.175 1.088 1.088 0 0 0 0-2.175ZM10 5.343a4.656 4.656 0 1 0 0 9.314 4.656 4.656 0 0 0 0-9.313Zm0 1.635a3.022 3.022 0 1 1 0 6.044 3.022 3.022 0 0 1 0-6.044Z" fill="#fff"/></svg>