<svg width="17" height="14" fill="none" xmlns="http://www.w3.org/2000/svg"><path fill-rule="evenodd" clip-rule="evenodd" d="m8.49 3.818.037.588-.595-.072c-2.164-.276-4.055-1.212-5.66-2.785l-.785-.78-.202.576c-.428 1.284-.155 2.64.737 3.553.476.504.369.577-.452.276-.285-.096-.535-.168-.559-.132-.083.084.202 1.177.428 1.609.31.6.94 1.188 1.63 1.537l.582.276-.69.012c-.665 0-.69.012-.618.264.238.78 1.177 1.608 2.224 1.969l.737.252-.642.384a6.695 6.695 0 0 1-3.187.888c-.535.012-.975.06-.975.096 0 .12 1.45.793 2.295 1.057 2.533.78 5.541.444 7.8-.889 1.606-.948 3.211-2.833 3.96-4.658.405-.972.809-2.749.809-3.601 0-.552.036-.624.701-1.285.393-.384.761-.804.833-.924.119-.228.107-.228-.5-.024-1.01.36-1.153.312-.653-.228.368-.384.808-1.08.808-1.285 0-.036-.178.024-.38.133-.214.12-.69.3-1.047.408l-.642.204-.583-.396c-.32-.216-.773-.457-1.01-.529-.607-.168-1.534-.144-2.081.048C9.323.9 8.384 2.293 8.49 3.818Z" fill="#fff"/></svg>